<svg width="134" height="116" viewBox="0 0 134 116" fill="none" xmlns="http://www.w3.org/2000/svg">
<path fill-rule="evenodd" clip-rule="evenodd" d="M21.5382 104.654C21.5007 97.2783 21.4998 63.1572 21.5647 58.1087C21.7062 47.1964 22.1599 41.3752 23.5048 35.3673C26.9048 20.1817 43.7518 2.22783 43.7518 2.22783C43.7518 2.22783 60.5987 20.1825 63.9987 35.3673C65.3436 41.3752 65.7973 47.1964 65.9389 58.1087C66.0079 63.4702 66.002 97.4378 65.9576 104.654H21.5391H21.5382Z" fill="#B7CBD8"/>
<path d="M24.6831 111.949H28.1173V100.198H34.1841C38.877 100.198 41.7006 97.3743 41.7006 92.6814C41.7006 87.9885 38.877 85.1649 34.1841 85.1649H24.6831V111.95V111.949ZM34.1841 96.7637H28.1173V88.5982H34.1841C36.9693 88.5982 38.2664 89.8953 38.2664 92.6805C38.2664 95.4658 36.9693 96.7629 34.1841 96.7629V96.7637ZM55.5516 88.0644C59.1001 88.0644 61.1221 91.4218 61.1221 98.5955C61.1221 105.769 59.1001 108.974 55.5516 108.974C52.0032 108.974 49.9812 105.769 49.9812 98.5955C49.9812 91.4218 52.0032 88.0644 55.5516 88.0644ZM55.5516 84.6302C49.5991 84.6302 46.547 89.8953 46.547 98.5947C46.547 107.294 49.6375 112.407 55.5516 112.407C61.4658 112.407 64.5563 107.295 64.5563 98.5947C64.5563 89.8953 61.5033 84.6302 55.5516 84.6302ZM70.4704 111.949H73.9046V100.198H79.9713C84.6643 100.198 87.4879 97.3743 87.4879 92.6814C87.4879 87.9885 84.6643 85.1649 79.9713 85.1649H70.4704V111.95V111.949ZM79.9713 96.7637H73.9046V88.5982H79.9713C82.7566 88.5982 84.0537 89.8953 84.0537 92.6805C84.0537 95.4658 82.7566 96.7629 79.9713 96.7629V96.7637ZM101.339 88.0644C104.887 88.0644 106.909 91.4218 106.909 98.5955C106.909 105.769 104.887 108.974 101.339 108.974C97.7905 108.974 95.7685 105.769 95.7685 98.5955C95.7685 91.4218 97.7905 88.0644 101.339 88.0644ZM101.339 84.6302C95.3864 84.6302 92.3343 89.8953 92.3343 98.5947C92.3343 107.294 95.4248 112.407 101.339 112.407C107.253 112.407 110.344 107.295 110.344 98.5947C110.344 89.8953 107.291 84.6302 101.339 84.6302ZM114.541 85.2408L121.6 111.949H127.132L134 85.2408H130.185L125.186 105.387L125.148 109.279H123.622L123.583 105.387L118.356 85.2408H114.54H114.541Z" fill="#2B2A29"/>
<path fill-rule="evenodd" clip-rule="evenodd" d="M39.2668 54.6619C43.8668 54.6619 47.5969 58.3911 47.5969 62.992C47.5969 67.5919 43.8677 71.322 39.2668 71.322C34.666 71.322 30.9368 67.5928 30.9368 62.992C30.9368 58.3911 34.666 54.6619 39.2668 54.6619Z" fill="#2B2A29"/>
<path fill-rule="evenodd" clip-rule="evenodd" d="M30.9316 33.1628L39.2668 28.1355L47.6012 33.1628V44.6763H30.9316V33.1628Z" fill="#2B2A29"/>
<path d="M70.0847 77.7853V69.3307H71.7971V72.6608H75.1273V69.3307H76.8397V77.7853H75.1273V74.0893H71.7971V77.7853H70.0847ZM80.4018 73.6091C80.4018 72.747 80.5314 72.023 80.7898 71.4362C80.9808 71.0047 81.2444 70.6176 81.5769 70.2747C81.9095 69.9319 82.2737 69.6786 82.6694 69.5115C83.1973 69.2889 83.8044 69.1772 84.4935 69.1772C85.7411 69.1772 86.7372 69.5652 87.4868 70.3387C88.2347 71.1139 88.6082 72.1901 88.6082 73.5699C88.6082 74.9378 88.2364 76.008 87.4945 76.7798C86.7525 77.5533 85.759 77.9388 84.5174 77.9388C83.2595 77.9388 82.2583 77.555 81.5164 76.7858C80.7745 76.0183 80.4027 74.96 80.4027 73.6091H80.4018ZM82.1611 73.552C82.1611 74.5105 82.3837 75.2363 82.8263 75.7326C83.2689 76.2264 83.8317 76.4745 84.5131 76.4745C85.1962 76.4745 85.7548 76.2281 86.194 75.7386C86.6306 75.2465 86.8498 74.5105 86.8498 73.5281C86.8498 72.5577 86.6374 71.8336 86.2102 71.3569C85.7855 70.8785 85.2201 70.6406 84.514 70.6406C83.8096 70.6406 83.2407 70.8828 82.8092 71.3646C82.3786 71.849 82.162 72.5773 82.162 73.5512L82.1611 73.552ZM93.9859 77.7853V70.7591H91.4821V69.3307H98.1893V70.7591H95.6975V77.7853H93.9851H93.9859ZM101.442 77.7853V69.3307H107.7V70.7591H103.153V72.637H107.381V74.0654H103.153V76.356H107.865V77.7844H101.442V77.7853ZM111.509 77.7853V69.4015H113.222V76.3568H117.461V77.7853H111.509ZM122.306 75.3173L120.818 75.3412C120.865 77.3955 122.353 77.9157 123.51 77.9268C124.62 77.9388 126.144 77.3248 126.156 75.5058C126.168 72.4596 122.33 73.2979 122.306 71.704C122.294 71.1847 122.72 70.8188 123.44 70.8188C124.219 70.8188 124.597 71.2085 124.597 71.8814H126.085C126.085 70.4521 125.093 69.3187 123.452 69.3307C121.81 69.3426 120.795 70.4052 120.818 71.704C120.865 74.7272 124.68 73.7584 124.668 75.5058C124.668 76.0959 124.219 76.4387 123.534 76.4387C122.779 76.4387 122.33 76.1317 122.306 75.3164V75.3173Z" fill="#2B2A29"/>
<path d="M54.0936 35.3328V51.6833H27.4831V67.4276H24.4395V48.6397H51.05V35.3328H54.0936Z" fill="#2B2A29"/>
<path d="M14.6075 70.3835L15.5131 69.8283C15.5072 65.3921 15.5217 61.3814 15.5643 58.0913C15.636 52.5524 15.7852 48.3303 16.0828 44.775C16.3864 41.1566 16.8469 38.136 17.5394 35.0412C21.0324 19.4402 38.1053 1.24678 38.1548 1.19391L39.266 0L40.3772 1.19391C40.4266 1.24678 57.4995 19.4411 60.9926 35.0412C61.685 38.1351 62.1464 41.1566 62.4491 44.775C62.7468 48.3311 62.896 52.5524 62.9685 58.0913C63.0035 60.816 63.0197 63.8656 63.0205 67.1582C63.0214 70.4432 63.0077 73.9643 62.9847 77.6424L59.953 77.6305C59.976 73.9524 59.9897 70.4346 59.9888 67.1582C59.988 63.8886 59.9718 60.8518 59.9368 58.1271C59.8669 52.7545 59.7185 48.6083 59.4175 45.024C59.1224 41.502 58.6841 38.6084 58.0317 35.6945C55.2405 23.2275 43.0328 8.736 39.2651 4.4891C35.4975 8.73515 23.2898 23.2266 20.4986 35.6945C19.8462 38.6084 19.4079 41.502 19.1128 45.024C18.8126 48.6083 18.6634 52.7537 18.5943 58.1271C18.5235 63.5773 18.5312 71.0069 18.5772 79.07C18.6233 87.1331 18.7094 95.8453 18.7947 103.851L18.8041 104.736L7.75444 111.107L0 115.584L0.0614011 112.891C0.834884 78.8338 0.979007 78.7451 14.6058 70.3843L14.6075 70.3835ZM15.5208 73.3853C4.29125 80.2852 3.8333 81.1184 3.15533 110.259L15.7545 102.99C15.6726 95.2364 15.5908 86.8688 15.5464 79.0819C15.5353 77.1401 15.5259 75.235 15.52 73.3853H15.5208Z" fill="#2B2A29"/>
</svg>
