<svg width="12" height="12" viewBox="0 0 12 12" fill="none" xmlns="http://www.w3.org/2000/svg">
<path d="M5.91758 0.16953C5.70395 0.240654 5.61239 0.311778 5.53101 0.484508C5.44963 0.636916 5.44963 0.962054 5.52084 1.1043C5.55136 1.16527 6.49744 2.13052 7.63682 3.2685L9.69176 5.3311L5.07323 5.33109C0.576766 5.33109 0.45469 5.33109 0.302095 5.42254C-0.104825 5.66639 -0.0844785 6.35731 0.332614 6.57068C0.45469 6.63164 1.0142 6.6418 5.0834 6.64181L9.69176 6.64181L7.63682 8.69424C6.49744 9.83222 5.55135 10.8076 5.52084 10.8584C5.43945 11.021 5.4598 11.3461 5.56153 11.5189C5.7243 11.783 6.14139 11.905 6.41606 11.7729C6.56865 11.6916 11.8179 6.45892 11.8993 6.30651C11.94 6.23539 11.9603 6.09314 11.9603 5.99153C11.9603 5.87977 11.9298 5.73752 11.8993 5.66639C11.8179 5.51399 6.56866 0.271136 6.42623 0.210173C6.24312 0.118727 6.1007 0.108567 5.91758 0.16953Z" fill="white" fill-opacity="0.8"/>
</svg>
