<svg width="12" height="12" viewBox="0 0 12 12" fill="none" xmlns="http://www.w3.org/2000/svg">
<path d="M6.08242 11.8305C6.29605 11.7593 6.38761 11.6882 6.46899 11.5155C6.55037 11.3631 6.55037 11.0379 6.47916 10.8957C6.44864 10.8347 5.50256 9.86948 4.36318 8.7315L2.30824 6.66891L6.92677 6.66891C11.4232 6.66891 11.5453 6.66891 11.6979 6.57746C12.1048 6.33361 12.0845 5.64269 11.6674 5.42932C11.5453 5.36836 10.9858 5.3582 6.9166 5.35819L2.30824 5.35819L4.36318 3.30576C5.50256 2.16778 6.44864 1.19236 6.47916 1.14156C6.56055 0.978993 6.5402 0.653856 6.43847 0.481126C6.2757 0.216952 5.85861 0.095025 5.58394 0.227112C5.43135 0.308397 0.182085 5.54108 0.100701 5.69349C0.060009 5.76462 0.0396638 5.90686 0.0396638 6.00847C0.0396638 6.12024 0.0701819 6.26248 0.100701 6.33361C0.182085 6.48602 5.43134 11.7289 5.57377 11.7898C5.75688 11.8813 5.8993 11.8914 6.08242 11.8305Z" fill="white" fill-opacity="0.8"/>
</svg>
